HIERARCHY
ROOT Hips
{
	OFFSET 13.680169 99.136658 -1.522606
	CHANNELS 6 Xposition Yposition Zposition Xrotation Yrotation Zrotation
	JOINT Chest
	{
		OFFSET -4.723035 11.452934 5.716416
		CHANNELS 3 Xrotation Yrotation Zrotation
		JOINT Chest2
		{
			OFFSET -8.154004 17.583763 9.131824
			CHANNELS 3 Xrotation Yrotation Zrotation
			JOINT Chest3
			{
				OFFSET -3.199997 14.017624 4.010758
				CHANNELS 3 Xrotation Yrotation Zrotation
				JOINT Neck
				{
					OFFSET -4.674025 15.499680 6.043974
					CHANNELS 3 Xrotation Yrotation Zrotation
					JOINT Head
					{
						OFFSET -3.730084 9.144669 3.505608
						CHANNELS 3 Xrotation Yrotation Zrotation
						End Site
						{
							OFFSET -3.721173 9.173523 3.439034
						}
					}
				}
				JOINT LeftCollar
				{
					OFFSET 0.600477 12.018646 7.549572
					CHANNELS 3 Xrotation Yrotation Zrotation
					JOINT LeftUpArm
					{
						OFFSET 14.278951 8.291901 -5.987923
						CHANNELS 3 Xrotation Yrotation Zrotation
						JOINT LeftLowArm
						{
							OFFSET 25.390593 16.023605 15.436617
							CHANNELS 3 Xrotation Yrotation Zrotation
							JOINT LeftHand
							{
								OFFSET -27.402649 1.700806 12.130535
								CHANNELS 3 Xrotation Yrotation Zrotation
								End Site
								{
									OFFSET -5.989001 0.371765 2.651207
								}
							}
						}
					}
				}
				JOINT RightCollar
				{
					OFFSET -7.492085 9.746002 7.119894
					CHANNELS 3 Xrotation Yrotation Zrotation
					JOINT RightUpArm
					{
						OFFSET -15.323970 -5.319061 -6.736462
						CHANNELS 3 Xrotation Yrotation Zrotation
						JOINT RightLowArm
						{
							OFFSET -12.151905 -30.516525 7.797928
							CHANNELS 3 Xrotation Yrotation Zrotation
							JOINT RightHand
							{
								OFFSET -16.315315 -2.254463 25.093472
								CHANNELS 3 Xrotation Yrotation Zrotation
								End Site
								{
									OFFSET -3.565876 -0.492752 5.484428
								}
							}
						}
					}
				}
			}
		}
	}
	JOINT LeftUpLeg
	{
		OFFSET 8.904130 1.503181 4.344658
		CHANNELS 3 Xrotation Yrotation Zrotation
		JOINT LeftLowLeg
		{
			OFFSET -6.761537 -45.226597 12.362272
			CHANNELS 3 Xrotation Yrotation Zrotation
			JOINT LeftFoot
			{
				OFFSET -1.212908 -35.378906 -27.339153
				CHANNELS 3 Xrotation Yrotation Zrotation
				JOINT LeftToe
				{
					OFFSET -2.728551 -21.075066 10.390201
					CHANNELS 3 Xrotation Yrotation Zrotation
					End Site
					{
						OFFSET -1.003567 -9.782154 21.514208
					}
				}
			}
		}
	}
	JOINT RightUpLeg
	{
		OFFSET -8.904064 -1.503349 -4.344744
		CHANNELS 3 Xrotation Yrotation Zrotation
		JOINT RightLowLeg
		{
			OFFSET 17.403204 -35.913506 -25.521791
			CHANNELS 3 Xrotation Yrotation Zrotation
			JOINT RightFoot
			{
				OFFSET 19.158667 -23.442345 -32.923893
				CHANNELS 3 Xrotation Yrotation Zrotation
				JOINT RightToe
				{
					OFFSET 12.847462 -17.706516 -8.998825
					CHANNELS 3 Xrotation Yrotation Zrotation
					End Site
					{
						OFFSET 5.949821 -22.431984 4.578415
					}
				}
			}
		}
	}
}
MOTION
Frames: 5
Frame Time: 0.033333
5.318962 105.923744 -1.111734 -18.550722 22.393684 -11.800192 -4.585690 -2.079807 -0.874077 6.697509 -2.642045 7.059527 3.173375 -12.601372 -9.054586 0.450323 6.188212 -0.638599 -0.000001 -0.000001 0.000001 7.418612 12.345909 -30.208708 27.255721 20.345663 -69.419707 -81.604505 117.242519 49.362385 0.000001 -0.000004 0.000002 10.309301 -9.374681 13.947762 22.111877 3.469626 12.575340 39.847433 25.045458 24.430788 0.000001 0.000000 -0.000003 30.362349 11.189479 30.120103 -36.707773 9.776851 4.478339 -3.272665 -21.382244 -18.648949 -0.000004 0.000000 -0.000000 -10.870405 0.126430 -5.204030 -1.310703 -3.545373 -2.989608 -24.509084 -3.231127 -34.112649 -0.000000 0.000002 -0.000000 
5.318012 105.916977 -1.107166 -17.954137 22.414143 -11.876308 -5.239529 -2.223929 -1.111903 6.669160 -2.746230 7.093595 3.373027 -12.472696 -9.026159 0.589002 6.146697 -0.775641 -0.000003 0.000000 -0.000002 7.694258 11.921092 -30.221357 27.314010 20.440880 -69.550894 -82.126010 117.058760 50.451530 0.000001 -0.000008 -0.000001 10.374300 -9.533029 14.001446 22.105252 3.480502 12.539372 39.721481 25.094233 24.208844 0.000002 -0.000004 -0.000000 30.262591 11.207377 30.221128 -37.088760 10.051744 4.298130 -3.036256 -21.571833 -18.440966 -0.000000 0.000000 -0.000000 -10.866109 0.062665 -5.127774 -2.000064 -3.822169 -3.539170 -24.182985 -3.103438 -33.641216 -0.000001 -0.000001 0.000003 
5.313153 105.913338 -1.103066 -18.164499 22.397524 -11.833042 -4.977882 -2.119679 -1.101416 6.553739 -2.756997 7.045427 3.479595 -12.583391 -9.013010 0.629178 6.267975 -0.787885 -0.000001 -0.000000 -0.000000 7.468876 12.393395 -30.034432 27.327341 20.285214 -69.474253 -81.325956 117.194585 49.497087 0.000005 -0.000003 -0.000001 10.352916 -9.320577 14.003100 21.886822 3.750901 12.660020 40.047878 24.858491 24.055226 -0.000001 0.000003 0.000000 30.475382 11.339571 30.244347 -37.076596 10.115710 4.409432 -3.070078 -21.860908 -18.595240 -0.000002 0.000000 0.000001 -10.556039 0.067285 -5.036001 -2.016158 -3.906865 -3.681936 -24.460571 -2.972646 -33.512453 0.000002 0.000001 0.000003 
5.303688 105.910309 -1.099413 -18.001052 22.391419 -11.759564 -5.094594 -2.051059 -1.294373 6.923657 -2.637811 7.158656 3.080071 -12.826135 -9.149996 0.911274 6.282858 -0.728369 -0.000003 -0.000001 0.000001 7.531696 12.250615 -29.986651 27.454147 20.154029 -69.580148 -81.767357 116.791672 50.448853 0.000001 -0.000001 -0.000001 10.351559 -9.150057 13.962642 21.835433 3.890911 12.704606 40.281252 24.967739 23.760169 -0.000001 -0.000002 0.000002 30.420559 11.299386 30.171029 -37.207961 10.127849 4.396689 -2.989956 -21.944233 -18.568988 0.000001 0.000000 -0.000000 -10.814906 0.118379 -5.185694 -1.970153 -3.885033 -3.593891 -24.546079 -2.964237 -33.424842 0.000002 0.000001 0.000003 
5.295063 105.912247 -1.104934 -18.192684 22.406226 -11.791300 -4.872497 -1.988097 -1.231970 6.604921 -2.719279 7.053283 3.430194 -12.847197 -9.034992 0.585336 6.198757 -0.735261 -0.000005 0.000000 -0.000002 7.533162 12.179096 -29.945817 27.383408 20.243631 -69.643109 -82.037614 116.973301 50.475549 0.000001 -0.000000 -0.000003 10.385774 -9.235648 14.020205 21.558099 4.026737 12.620687 40.173202 24.915265 24.032705 -0.000001 0.000006 -0.000005 30.437628 11.315247 30.242899 -37.089812 10.082967 4.426710 -2.912308 -21.941477 -18.448392 -0.000000 0.000000 -0.000000 -10.888505 0.070651 -5.168851 -1.650716 -3.764720 -3.389879 -24.764657 -2.953696 -33.644778 0.000001 0.000003 0.000002 
